<?xml version="1.0" encoding="UTF-8"?>
<svg id="Artwork" xmlns="http://www.w3.org/2000/svg" viewBox="0 0 628 199">
  <defs>
    <style>
      .cls-1 {
        fill: #e9e3dd;
      }

      .cls-1, .cls-2, .cls-3, .cls-4, .cls-5, .cls-6, .cls-7, .cls-8 {
        stroke-width: 0px;
      }

      .cls-2, .cls-8 {
        fill: #a69385;
      }

      .cls-3 {
        fill: #7a685b;
      }

      .cls-4 {
        fill: #c4b6ab;
      }

      .cls-5 {
        fill: #f3f1ed;
      }

      .cls-6 {
        fill: #b3a092;
      }

      .cls-7 {
        fill: #d3c7bd;
      }

      .cls-8 {
        opacity: .25;
      }
    </style>
  </defs>
  <path class="cls-3" d="M234.76,128.92l77.27-16.85c1.04-.23,2.12-.24,3.16-.05l110.91,20.64c1.72.32,2.02,2.65.44,3.4l-107.2,50.52c-1.37.65-2.98.53-4.24-.32l-80.94-54.07c-1.34-.87-.96-2.93.6-3.27Z"/>
  <path class="cls-3" d="M310.48,101.08l-83.46,17.78c-1.69.36-2.87-1.64-1.73-2.95L323.94,3.31c1.66-1.9,4.58-1.97,6.34-.17l115.17,118.17c1.22,1.25.12,3.34-1.61,3.03l-130.3-23.31c-1.02-.18-2.06-.17-3.07.05Z"/>
  <path class="cls-3" d="M626.23,193.97l-83.85-96.48c-1.27-1.46-3.35-1.9-5.1-1.07l-1.07.5-204.93,96.6c-1.74.82-1.15,3.43.77,3.43h292.82c1.54,0,2.37-1.82,1.36-2.98Z"/>
  <path class="cls-3" d="M433.65,92.55l29.49-38.92c1.68-2.22,5-2.29,6.77-.14l36.55,44.26c.75.9.44,2.27-.62,2.77l-42.83,20.34c-.67.32-1.47.19-2.01-.32l-27.17-25.59c-.67-.63-.76-1.66-.2-2.4Z"/>
  <path class="cls-3" d="M3.12,197.16h302.71c1.77,0,2.48-2.28,1.02-3.28l-93.49-64.34-51.01-109.55c-1.32-2.83-5.11-3.37-7.17-1.02L1.77,194.18c-1.02,1.16-.19,2.99,1.35,2.99Z"/>
  <path class="cls-4" d="M313.02,97.09l-7.04-33.63c-.16-.75.61-1.36,1.3-1.04l120.4,54.73c.38.18.2.76-.21.68l-113.7-20.02c-.38-.07-.67-.35-.75-.73Z"/>
  <path class="cls-5" d="M308.43,59.44c-1.41-.64-2.06-2.29-1.47-3.73l20.22-48.78c.26-.61,1.06-.76,1.53-.28l107.58,110.08c.28.29-.04.75-.41.58l-127.45-57.87Z"/>
  <path class="cls-6" d="M244.68,100.31l55.82-41.4c.62-.46,1.1-1.07,1.4-1.77l18.57-43.49c.16-.38-.33-.68-.6-.38l-75.67,86.51c-.28.33.14.78.49.53Z"/>
  <path class="cls-7" d="M230.71,114.67l70.74-51.95c.55-.41,1.34-.1,1.47.57l6.75,33.64c.11.51-.2,1.01-.71,1.12l-77.96,17.26c-.38.08-.6-.41-.29-.64Z"/>
  <path class="cls-5" d="M464.78,115.99l35.12-16.18c.68-.31.74-1.25.11-1.64l-36.67-23c-.64-.39-1.45.09-1.42.83l1.53,39.18c.03.67.72,1.09,1.33.81Z"/>
  <path class="cls-7" d="M500.71,94.7c.44.58-.27,1.31-.89.95l-36.36-23.21c-1.14-.93-.9-2.46-.68-3.21l3.54-12.56c.45-1.49,1.56-1.8,2.66-.59l31.73,38.63Z"/>
  <path class="cls-6" d="M442.44,84.67c-.26.34.19.77.52.49l14.19-11.76s.04-.03.05-.04c1.6-1.25,2.77-2.96,3.37-4.9l3.39-11c.12-.38-.39-.64-.63-.33l-20.88,27.54Z"/>
  <path class="cls-4" d="M437.99,92.52l20.09-16.67c.21-.17.52-.03.53.24l1.33,38.53c.01.33-.4.5-.62.26l-21.4-19.64c-.8-.74-.77-2.01.07-2.71Z"/>
  <path class="cls-7" d="M516.48,127.7l22.46-27.33c.37-.45,1.05-.46,1.43-.02l77.1,88.1c.27.31-.1.76-.46.55l-100.29-59.9c-.49-.29-.61-.96-.24-1.4Z"/>
  <path class="cls-6" d="M368.93,180.13l142.05-52.38c.71-.26,1.34-.71,1.83-1.29l19.22-23.15c.25-.3-.08-.72-.43-.56l-162.94,76.71c-.42.2-.15.82.28.66Z"/>
  <path class="cls-5" d="M344.64,193.78l272.87-.06c.37,0,.5-.48.18-.67l-102.78-61.56c-1.12-.67-2.49-.8-3.71-.35l-166.76,61.52c-.6.22-.44,1.12.2,1.12Z"/>
  <path class="cls-7" d="M300.62,139.11l13-23.3c.19-.35.59-.54.98-.47l101.86,17.5c.42.07.39.69-.04.71l-114.93,6.94c-.74.04-1.23-.74-.87-1.39Z"/>
  <path class="cls-6" d="M295.03,144.17c-.39-.7-.38-.68-1.35-.86l-49.33-9.64c-.39-.08-.6.44-.27.65l70.23,47.6-19.28-37.75"/>
  <path class="cls-4" d="M295.43,140.48c.4.08.8-.11.99-.46l12.32-22.1c.4-.7-.22-1.54-1.01-1.38l-63.36,13.44c-.38.08-.38.63,0,.71l51.04,9.8Z"/>
  <path class="cls-5" d="M319.42,182.91l100.22-46.65c.36-.17.22-.71-.18-.69l-119.15,8.44c-.55.12-.98.69-.78,1.35l18.65,37.11c.23.45.78.64,1.23.43Z"/>
  <path class="cls-6" d="M13.5,187.62l114.16-77.74c.81-.55,1.41-1.36,1.7-2.29l25.68-82.96c.12-.37-.36-.64-.62-.34L13.03,187.08c-.28.32.13.77.47.53Z"/>
  <path class="cls-7" d="M208.22,129.28l-72.75-19.53c-1.17-.31-1.85-1.53-1.51-2.69l24.4-83.25c.24-.83,1.38-.91,1.74-.14l49.21,104.31c.34.72-.32,1.51-1.09,1.3Z"/>
  <path class="cls-4" d="M144.49,115.18l66.58,18.39c.46.13.89.33,1.28.59l70.2,47.81c.37.25.04.82-.36.62l-137.96-66.75c-.4-.19-.17-.79.26-.67Z"/>
  <path class="cls-5" d="M14.32,192.81l278.32.95c.99,0,1.31-1.34.41-1.78l-161.92-79.08c-.3-.15-.66-.12-.94.07L14,191.76c-.47.32-.25,1.05.32,1.05Z"/>
  <circle class="cls-2" cx="291.12" cy="151.75" r="2.94"/>
  <circle class="cls-2" cx="276.46" cy="150.53" r="2.94"/>
  <circle class="cls-2" cx="301.98" cy="167.25" r="2.94"/>
  <circle class="cls-2" cx="261.97" cy="142.06" r="2.94"/>
  <circle class="cls-2" cx="56.86" cy="145.59" r="2.94"/>
  <circle class="cls-2" cx="95.15" cy="103.59" r="2.94"/>
  <circle class="cls-2" cx="83.89" cy="130.79" r="2.94"/>
  <circle class="cls-2" cx="119.83" cy="95.36" r="2.94"/>
  <circle class="cls-2" cx="130.84" cy="62.74" r="2.94"/>
  <circle class="cls-1" cx="258.83" cy="184.75" r="2.94"/>
  <circle class="cls-1" cx="413.89" cy="101.11" r="2.94"/>
  <circle class="cls-1" cx="359.94" cy="73.68" r="2.94"/>
  <circle class="cls-1" cx="353.3" cy="49.28" r="2.94"/>
  <circle class="cls-1" cx="326.63" cy="52.22" r="2.94"/>
  <circle class="cls-1" cx="334.02" cy="24.96" r="2.94"/>
  <circle class="cls-1" cx="392.15" cy="80.56" r="2.94"/>
  <circle class="cls-8" cx="453.84" cy="100.65" r="2.94"/>
  <circle class="cls-8" cx="445.64" cy="92.67" r="2.94"/>
  <circle class="cls-8" cx="453.12" cy="84.43" r="2.94"/>
  <circle class="cls-1" cx="513.95" cy="146.16" r="2.94"/>
  <circle class="cls-1" cx="593.19" cy="187.4" r="2.94"/>
  <circle class="cls-1" cx="549.64" cy="174.15" r="2.94"/>
  <circle class="cls-1" cx="511.01" cy="181.05" r="2.94"/>
  <circle class="cls-1" cx="473.69" cy="162" r="2.94"/>
  <circle class="cls-1" cx="456.78" cy="187.11" r="2.94"/>
  <circle class="cls-1" cx="416.45" cy="178.11" r="2.94"/>
  <circle class="cls-1" cx="379.99" cy="187.11" r="2.94"/>
  <circle class="cls-1" cx="224.66" cy="184.17" r="2.94"/>
  <circle class="cls-1" cx="200.7" cy="167.47" r="2.94"/>
  <circle class="cls-1" cx="151.06" cy="154.69" r="2.94"/>
  <circle class="cls-1" cx="178.73" cy="145" r="2.94"/>
  <circle class="cls-1" cx="130.84" cy="124.97" r="2.94"/>
  <circle class="cls-1" cx="136.7" cy="177.38" r="2.94"/>
  <circle class="cls-1" cx="104.74" cy="149.7" r="2.94"/>
  <circle class="cls-1" cx="101.8" cy="177.38" r="2.94"/>
  <circle class="cls-1" cx="168.67" cy="183.26" r="2.94"/>
  <circle class="cls-1" cx="74.51" cy="164.53" r="2.94"/>
  <circle class="cls-1" cx="27.54" cy="189.18" r="2.94"/>
  <circle class="cls-1" cx="59.8" cy="188.39" r="2.94"/>
</svg>