<?xml version="1.0" encoding="UTF-8"?>
<svg id="Artwork" xmlns="http://www.w3.org/2000/svg" viewBox="0 0 628 199">
  <defs>
    <style>
      .cls-1 {
        fill: #f3f1ed;
        stroke-width: 0px;
      }
    </style>
  </defs>
  <path class="cls-1" d="M445.15,121.16L329.98,2.99c-1.76-1.8-4.68-1.73-6.34.17l-98.65,112.6c-1.14,1.3.04,3.31,1.73,2.95l83.46-17.78c1.01-.22,2.05-.23,3.07-.05l130.3,23.31c1.72.31,2.83-1.77,1.61-3.03ZM243.89,99.63L319.56,13.12c.27-.31.76,0,.6.38l-18.57,43.49c-.3.7-.78,1.32-1.4,1.77l-55.82,41.4c-.35.26-.77-.2-.49-.53ZM308.65,97.9l-77.96,17.26c-.38.08-.6-.41-.29-.64l70.74-51.95c.55-.41,1.34-.1,1.47.57l6.75,33.64c.11.51-.2,1.01-.71,1.12ZM427.17,117.68l-113.7-20.02c-.38-.07-.67-.35-.75-.73l-7.04-33.63c-.16-.75.61-1.36,1.3-1.04l120.4,54.73c.38.18.2.76-.21.68ZM435.58,117.15l-127.45-57.87c-1.41-.64-2.06-2.29-1.47-3.73l20.22-48.78c.26-.61,1.06-.76,1.53-.28l107.58,110.08c.28.29-.04.75-.41.58Z"/>
  <path class="cls-1" d="M506.17,97.59l-36.55-44.26c-1.77-2.15-5.09-2.08-6.77.14l-29.49,38.92c-.56.73-.47,1.77.2,2.4l27.17,25.59c.54.51,1.34.63,2.01.32l42.83-20.34c1.06-.5,1.36-1.87.62-2.77ZM459.02,114.72l-21.4-19.64c-.8-.74-.77-2.01.07-2.71l20.09-16.67c.21-.17.52-.03.53.24l1.33,38.53c.01.33-.4.5-.62.26ZM460.27,68.3c-.6,1.94-1.77,3.65-3.37,4.9-.02.01-.04.03-.05.04l-14.19,11.76c-.33.28-.78-.15-.52-.49l20.88-27.54c.24-.32.75-.06.63.33l-3.39,11ZM499.6,99.66l-35.12,16.18c-.61.28-1.3-.15-1.33-.81l-1.53-39.18c-.03-.75.79-1.23,1.42-.83l36.67,23c.63.4.57,1.33-.11,1.64ZM499.52,95.49l-36.36-23.21c-1.15-.93-.9-2.46-.68-3.21l3.54-12.56c.45-1.49,1.56-1.8,2.66-.59l31.73,38.63c.44.58-.27,1.31-.89.95Z"/>
  <path class="cls-1" d="M625.93,193.82l-83.85-96.48c-1.27-1.46-3.35-1.9-5.1-1.07l-1.07.5-204.93,96.6c-1.74.82-1.15,3.43.77,3.43h292.82c1.54,0,2.37-1.82,1.36-2.98ZM538.64,100.22c.37-.45,1.05-.46,1.43-.02l77.1,88.1c.27.31-.1.76-.46.55l-100.29-59.9c-.49-.29-.61-.96-.24-1.4l22.46-27.33ZM368.35,179.31l162.94-76.71c.35-.16.68.26.43.56l-19.22,23.15c-.49.58-1.12,1.03-1.83,1.29l-142.05,52.38c-.43.16-.69-.47-.28-.66ZM617.21,193.57l-272.87.06c-.65,0-.81-.9-.2-1.12l166.76-61.51c1.23-.46,2.59-.33,3.72.34l102.77,61.56c.32.19.18.67-.18.67Z"/>
  <path class="cls-1" d="M425.81,132.5l-110.91-20.64c-1.05-.19-2.12-.18-3.16.05l-77.27,16.85c-1.56.34-1.94,2.39-.6,3.27l80.94,54.07c1.26.84,2.87.96,4.24.32l107.2-50.52c1.58-.74,1.28-3.08-.44-3.4ZM313.32,115.66c.19-.35.59-.54.98-.47l101.86,17.5c.42.07.39.69-.04.71l-114.93,6.94c-.74.04-1.23-.74-.87-1.39l13-23.3ZM244.07,129.82l63.36-13.44c.79-.17,1.41.67,1.01,1.38l-12.32,22.1c-.2.35-.6.54-.99.46l-51.04-9.8c-.39-.07-.39-.62,0-.71ZM243.78,134.17c-.33-.22-.12-.73.27-.65l49.33,9.64c.97.18.97.16,1.35.86l19.28,37.75-70.23-47.6ZM419.33,136.11l-100.22,46.65c-.46.22-1.01.03-1.23-.43l-18.65-37.11c-.2-.66.23-1.23.78-1.35l119.15-8.44c.4-.03.54.52.18.69Z"/>
  <path class="cls-1" d="M306.55,193.73l-93.49-64.34-51.01-109.55c-1.32-2.83-5.11-3.37-7.17-1.02L1.47,194.03c-1.02,1.16-.19,2.99,1.35,2.99h302.71c1.77,0,2.48-2.28,1.02-3.28ZM212.05,134.02l70.2,47.81c.37.25.04.82-.36.62l-137.96-66.75c-.4-.19-.17-.79.26-.67l66.58,18.39c.46.13.89.33,1.28.59ZM158.05,23.65c.24-.83,1.38-.91,1.74-.14l49.21,104.31c.34.72-.32,1.51-1.09,1.3l-72.75-19.53c-1.17-.31-1.85-1.53-1.51-2.69l24.4-83.25ZM12.72,186.93L154.12,24.13c.26-.29.73-.03.62.34l-25.68,82.96c-.29.93-.89,1.74-1.7,2.29L13.2,187.47c-.35.24-.75-.22-.47-.53ZM292.35,193.61l-278.32-.95c-.57,0-.79-.73-.32-1.05l116.21-78.79c.28-.19.63-.21.94-.07l161.92,79.08c.89.44.58,1.78-.41,1.78Z"/>
</svg>