<?xml version="1.0" encoding="UTF-8"?>
<svg id="Artwork" xmlns="http://www.w3.org/2000/svg" viewBox="0 0 725 590">
  <defs>
    <style>
      .cls-1 {
        fill: #e9e3dd;
      }

      .cls-1, .cls-2, .cls-3, .cls-4, .cls-5, .cls-6, .cls-7, .cls-8, .cls-9, .cls-10 {
        stroke-width: 0px;
      }

      .cls-2 {
        fill: #5f7077;
      }

      .cls-3, .cls-10 {
        fill: #a69385;
      }

      .cls-4 {
        fill: #7a685b;
      }

      .cls-5 {
        fill: #c4b6ab;
      }

      .cls-6 {
        fill: #f3f1ed;
      }

      .cls-7 {
        fill: #b3a092;
      }

      .cls-8 {
        fill: #23313c;
      }

      .cls-9 {
        fill: #d3c7bd;
      }

      .cls-10 {
        opacity: .25;
      }
    </style>
  </defs>
  <path class="cls-8" d="M3.28,363.22c0,50.36,38.07,90.36,90.12,90.36,20.96,0,40.96-4.58,53.01-10.84v-46.27c-10.12,5.06-26.27,11.08-48.19,11.08-28.67,0-44.34-20.96-44.34-44.34s16.14-44.34,46.99-44.34c20.24,0,34.94,6.27,44.34,11.08v-45.78c-12.05-6.27-27.23-11.33-49.4-11.33-54.46,0-92.53,40.72-92.53,90.36Z"/>
  <path class="cls-8" d="M276.05,449.97v-42.41h-59.28v-131.08h-50.36v173.49h109.64Z"/>
  <path class="cls-8" d="M342.55,276.48h-50.36v173.49h50.36v-173.49Z"/>
  <path class="cls-8" d="M463.76,416.72l43.37-60.24v93.49h50.36v-173.49h-44.34l-49.4,71.81-49.4-71.81h-44.34v173.49h50.36v-93.49l43.37,60.24Z"/>
  <path class="cls-8" d="M584.96,449.97h62.89c43.37,0,73.98-15.42,73.98-52.29,0-20.48-14.7-34.94-28.67-38.8,11.33-4.34,22.41-14.7,22.41-32.53,0-35.18-32.29-49.88-71.57-49.88h-59.04v173.49ZM650.5,377.92c9.64,0,19.28,3.86,19.28,16.14s-9.64,15.9-19.28,15.9h-17.59v-32.05h17.59ZM646.89,316.48c9.64,0,18.07,3.61,18.07,14.94s-8.43,14.7-18.07,14.7h-13.98v-29.64h13.98Z"/>
  <path class="cls-2" d="M28.43,585.92v-83.28H10.62v83.28h17.81Z"/>
  <path class="cls-2" d="M146.33,585.92v-83.28h-17.81v54.01l-39.67-54.01h-15.73v83.28h17.81v-52.86l39.67,52.86h15.73Z"/>
  <path class="cls-2" d="M211.95,587.54c19.66,0,31-9.02,31-24.06,0-14-9.02-20.13-23.6-25.79-11.33-4.28-15.85-7.63-15.85-12.49,0-5.32,5.55-8.67,14.11-8.67,7.63,0,15.5,2.2,20.36,5.09v-16.42c-5.2-2.31-13.42-4.16-21.74-4.16-17.93,0-30.19,9.48-30.19,24.29s8.56,20.59,23.13,25.91c11.45,4.16,16.42,7.06,16.42,12.61,0,4.05-3.7,6.48-10.06,7.4-2.2.46-4.74.58-7.4.46-7.52-.46-15.15-3.01-20.93-6.01v17.12c6.01,2.66,15.27,4.74,24.75,4.74Z"/>
  <path class="cls-2" d="M299.54,585.92v-83.28h-17.81v83.28h17.81Z"/>
  <path class="cls-2" d="M412,581.17v-33.66h-17v22.21c-2.89.93-7.29,1.62-11.33,1.62-16.42,0-26.83-12.03-26.83-27.06s10.41-26.95,27.64-26.95c11.22,0,19.55,3.24,24.98,5.78v-16.42c-4.74-2.2-13.76-5.67-26.14-5.67-25.79,0-44.41,18.97-44.41,43.26s18.39,43.26,44.76,43.26c10.18,0,20.93-2.54,28.34-6.36Z"/>
  <path class="cls-2" d="M522.96,585.92v-83.28h-17.81v33.66h-34.35v-33.66h-17.81v83.28h17.81v-34.81h34.35v34.81h17.81Z"/>
  <path class="cls-2" d="M624.2,517.56v-14.92h-64.42v14.92h23.25v68.36h17.81v-68.36h23.36Z"/>
  <path class="cls-2" d="M681.96,587.54c19.66,0,31-9.02,31-24.06,0-14-9.02-20.13-23.6-25.79-11.33-4.28-15.85-7.63-15.85-12.49,0-5.32,5.55-8.67,14.11-8.67,7.63,0,15.5,2.2,20.36,5.09v-16.42c-5.2-2.31-13.42-4.16-21.74-4.16-17.93,0-30.19,9.48-30.19,24.29s8.56,20.59,23.13,25.91c11.45,4.16,16.42,7.06,16.42,12.61,0,4.05-3.7,6.48-10.06,7.4-2.2.46-4.74.58-7.4.46-7.52-.46-15.15-3.01-20.93-6.01v17.12c6.01,2.66,15.27,4.74,24.75,4.74Z"/>
  <path class="cls-4" d="M283.14,131.1l77.27-16.85c1.04-.23,2.12-.24,3.16-.05l110.91,20.64c1.72.32,2.02,2.65.44,3.4l-107.2,50.52c-1.37.65-2.98.53-4.24-.32l-80.94-54.07c-1.34-.87-.96-2.93.6-3.27Z"/>
  <path class="cls-4" d="M358.85,103.26l-83.46,17.78c-1.69.36-2.87-1.64-1.73-2.95L372.31,5.49c1.66-1.9,4.58-1.97,6.34-.17l115.17,118.17c1.22,1.25.12,3.34-1.61,3.03l-130.3-23.31c-1.02-.18-2.06-.17-3.07.05Z"/>
  <path class="cls-4" d="M674.61,196.15l-83.85-96.48c-1.27-1.46-3.35-1.9-5.1-1.07l-1.07.5-204.93,96.6c-1.74.82-1.15,3.43.77,3.43h292.82c1.54,0,2.37-1.82,1.36-2.98Z"/>
  <path class="cls-4" d="M482.03,94.73l29.49-38.92c1.68-2.22,5-2.29,6.77-.14l36.55,44.26c.75.9.44,2.27-.62,2.77l-42.83,20.34c-.67.32-1.47.19-2.01-.32l-27.17-25.59c-.67-.63-.76-1.66-.2-2.4Z"/>
  <path class="cls-4" d="M51.5,199.34h302.71c1.77,0,2.48-2.28,1.02-3.28l-93.49-64.34-51.01-109.55c-1.32-2.83-5.11-3.37-7.17-1.02L50.14,196.36c-1.02,1.16-.19,2.99,1.35,2.99Z"/>
  <path class="cls-5" d="M361.39,99.27l-7.04-33.63c-.16-.75.61-1.36,1.3-1.04l120.4,54.73c.38.18.2.76-.21.68l-113.7-20.02c-.38-.07-.67-.35-.75-.73Z"/>
  <path class="cls-6" d="M356.81,61.62c-1.41-.64-2.06-2.29-1.47-3.73l20.22-48.78c.26-.61,1.06-.76,1.53-.28l107.58,110.08c.28.29-.04.75-.41.58l-127.45-57.87Z"/>
  <path class="cls-7" d="M293.05,102.48l55.82-41.4c.62-.46,1.1-1.07,1.4-1.77l18.57-43.49c.16-.38-.33-.68-.6-.38l-75.67,86.51c-.28.33.14.78.49.53Z"/>
  <path class="cls-9" d="M279.08,116.85l70.74-51.95c.55-.41,1.34-.1,1.47.57l6.75,33.64c.11.51-.2,1.01-.71,1.12l-77.96,17.26c-.38.08-.6-.41-.29-.64Z"/>
  <path class="cls-6" d="M513.15,118.17l35.12-16.18c.68-.31.74-1.25.11-1.64l-36.67-23c-.64-.39-1.45.09-1.42.83l1.53,39.18c.03.67.72,1.09,1.33.81Z"/>
  <path class="cls-9" d="M549.08,96.87c.44.58-.27,1.31-.89.95l-36.36-23.21c-1.14-.93-.9-2.46-.68-3.21l3.54-12.56c.45-1.49,1.56-1.8,2.66-.59l31.73,38.63Z"/>
  <path class="cls-7" d="M490.81,86.85c-.26.34.19.77.52.49l14.19-11.76s.04-.03.05-.04c1.6-1.25,2.77-2.96,3.37-4.9l3.39-11c.12-.38-.39-.64-.63-.33l-20.88,27.54Z"/>
  <path class="cls-5" d="M486.36,94.7l20.09-16.67c.21-.17.52-.03.53.24l1.33,38.53c.01.33-.4.5-.62.26l-21.4-19.64c-.8-.74-.77-2.01.07-2.71Z"/>
  <path class="cls-9" d="M564.86,129.88l22.46-27.33c.37-.45,1.05-.46,1.43-.02l77.1,88.1c.27.31-.1.76-.46.55l-100.29-59.9c-.49-.29-.61-.96-.24-1.4Z"/>
  <path class="cls-7" d="M417.3,182.31l142.05-52.38c.71-.26,1.34-.71,1.83-1.29l19.22-23.15c.25-.3-.08-.72-.43-.56l-162.94,76.71c-.42.2-.15.82.28.66Z"/>
  <path class="cls-6" d="M393.01,195.96l272.87-.06c.37,0,.5-.48.18-.67l-102.78-61.56c-1.12-.67-2.49-.8-3.71-.35l-166.76,61.52c-.6.22-.44,1.12.2,1.12Z"/>
  <path class="cls-9" d="M348.99,141.29l13-23.3c.19-.35.59-.54.98-.47l101.86,17.5c.42.07.39.69-.04.71l-114.93,6.94c-.74.04-1.23-.74-.87-1.39Z"/>
  <path class="cls-7" d="M343.4,146.35c-.39-.7-.38-.68-1.35-.86l-49.33-9.64c-.39-.08-.6.44-.27.65l70.23,47.6-19.28-37.75"/>
  <path class="cls-5" d="M343.8,142.65c.4.08.8-.11.99-.46l12.32-22.1c.4-.7-.22-1.54-1.01-1.38l-63.36,13.44c-.38.08-.38.63,0,.71l51.04,9.8Z"/>
  <path class="cls-6" d="M367.79,185.09l100.22-46.65c.36-.17.22-.71-.18-.69l-119.15,8.44c-.55.12-.98.69-.78,1.35l18.65,37.11c.23.45.78.64,1.23.43Z"/>
  <path class="cls-7" d="M61.87,189.8l114.16-77.74c.81-.55,1.41-1.36,1.7-2.29l25.68-82.96c.12-.37-.36-.64-.62-.34L61.4,189.26c-.28.32.13.77.47.53Z"/>
  <path class="cls-9" d="M256.59,131.46l-72.75-19.53c-1.17-.31-1.85-1.53-1.51-2.69l24.4-83.25c.24-.83,1.38-.91,1.74-.14l49.21,104.31c.34.72-.32,1.51-1.09,1.3Z"/>
  <path class="cls-5" d="M192.86,117.36l66.58,18.39c.46.13.89.33,1.28.59l70.2,47.81c.37.25.04.82-.36.62l-137.96-66.75c-.4-.19-.17-.79.26-.67Z"/>
  <path class="cls-6" d="M62.7,194.99l278.32.95c.99,0,1.31-1.34.41-1.78l-161.92-79.08c-.3-.15-.66-.12-.94.07l-116.21,78.79c-.47.32-.25,1.05.32,1.05Z"/>
  <circle class="cls-3" cx="339.49" cy="153.93" r="2.94"/>
  <circle class="cls-3" cx="324.83" cy="152.71" r="2.94"/>
  <circle class="cls-3" cx="350.35" cy="169.43" r="2.94"/>
  <circle class="cls-3" cx="310.34" cy="144.24" r="2.94"/>
  <circle class="cls-3" cx="105.24" cy="147.76" r="2.94"/>
  <circle class="cls-3" cx="143.52" cy="105.77" r="2.94"/>
  <circle class="cls-3" cx="132.27" cy="132.97" r="2.94"/>
  <circle class="cls-3" cx="168.2" cy="97.54" r="2.94"/>
  <circle class="cls-3" cx="179.21" cy="64.92" r="2.94"/>
  <circle class="cls-1" cx="307.2" cy="186.93" r="2.94"/>
  <circle class="cls-1" cx="462.26" cy="103.29" r="2.94"/>
  <circle class="cls-1" cx="408.31" cy="75.86" r="2.94"/>
  <circle class="cls-1" cx="401.67" cy="51.46" r="2.94"/>
  <circle class="cls-1" cx="375.01" cy="54.4" r="2.94"/>
  <circle class="cls-1" cx="382.39" cy="27.14" r="2.94"/>
  <circle class="cls-1" cx="440.52" cy="82.73" r="2.94"/>
  <circle class="cls-10" cx="502.21" cy="102.83" r="2.94"/>
  <circle class="cls-10" cx="494.01" cy="94.84" r="2.94"/>
  <circle class="cls-10" cx="501.5" cy="86.61" r="2.94"/>
  <circle class="cls-1" cx="562.32" cy="148.33" r="2.94"/>
  <circle class="cls-1" cx="641.56" cy="189.58" r="2.94"/>
  <circle class="cls-1" cx="598.02" cy="176.33" r="2.94"/>
  <circle class="cls-1" cx="559.38" cy="183.23" r="2.94"/>
  <circle class="cls-1" cx="522.07" cy="164.18" r="2.94"/>
  <circle class="cls-1" cx="505.15" cy="189.29" r="2.94"/>
  <circle class="cls-1" cx="464.82" cy="180.29" r="2.94"/>
  <circle class="cls-1" cx="428.36" cy="189.29" r="2.94"/>
  <circle class="cls-1" cx="273.03" cy="186.35" r="2.94"/>
  <circle class="cls-1" cx="249.07" cy="169.65" r="2.94"/>
  <circle class="cls-1" cx="199.44" cy="156.87" r="2.94"/>
  <circle class="cls-1" cx="227.1" cy="147.18" r="2.94"/>
  <circle class="cls-1" cx="179.21" cy="127.15" r="2.94"/>
  <circle class="cls-1" cx="185.08" cy="179.56" r="2.94"/>
  <circle class="cls-1" cx="153.11" cy="151.87" r="2.94"/>
  <circle class="cls-1" cx="150.17" cy="179.56" r="2.94"/>
  <circle class="cls-1" cx="217.04" cy="185.44" r="2.94"/>
  <circle class="cls-1" cx="122.88" cy="166.71" r="2.94"/>
  <circle class="cls-1" cx="75.91" cy="191.36" r="2.94"/>
  <circle class="cls-1" cx="108.18" cy="190.56" r="2.94"/>
</svg>