<?xml version="1.0" encoding="UTF-8"?>
<svg id="Artwork" xmlns="http://www.w3.org/2000/svg" viewBox="0 0 1491 222">
  <defs>
    <style>
      .cls-1 {
        fill: #f3f1ed;
        stroke-width: 0px;
      }
    </style>
  </defs>
  <path class="cls-1" d="M9.7,112c0,50.36,38.07,90.36,90.12,90.36,20.96,0,40.96-4.58,53.01-10.84v-46.27c-10.12,5.06-26.27,11.08-48.19,11.08-28.67,0-44.34-20.96-44.34-44.34s16.14-44.34,46.99-44.34c20.24,0,34.94,6.27,44.34,11.08v-45.78c-12.05-6.27-27.23-11.33-49.4-11.33C47.77,21.64,9.7,62.36,9.7,112Z"/>
  <path class="cls-1" d="M282.47,198.75v-42.41h-59.28V25.25h-50.36v173.49h109.64Z"/>
  <path class="cls-1" d="M348.97,25.25h-50.36v173.49h50.36V25.25Z"/>
  <path class="cls-1" d="M470.18,165.49l43.37-60.24v93.49h50.36V25.25h-44.34l-49.4,71.81-49.4-71.81h-44.34v173.49h50.36v-93.49l43.37,60.24Z"/>
  <path class="cls-1" d="M591.38,198.75h62.89c43.37,0,73.98-15.42,73.98-52.29,0-20.48-14.7-34.94-28.67-38.8,11.33-4.34,22.41-14.7,22.41-32.53,0-35.18-32.29-49.88-71.57-49.88h-59.04v173.49ZM656.92,126.7c9.64,0,19.28,3.86,19.28,16.14s-9.64,15.9-19.28,15.9h-17.59v-32.05h17.59ZM653.31,65.25c9.64,0,18.07,3.61,18.07,14.94s-8.43,14.7-18.07,14.7h-13.98v-29.64h13.98Z"/>
  <path class="cls-1" d="M796.23,153.64v-83.28h-17.81v83.28h17.81Z"/>
  <path class="cls-1" d="M914.13,153.64v-83.28h-17.81v54.01l-39.67-54.01h-15.73v83.28h17.81v-52.86l39.67,52.86h15.73Z"/>
  <path class="cls-1" d="M979.74,155.26c19.66,0,31-9.02,31-24.06,0-14-9.02-20.13-23.6-25.79-11.33-4.28-15.85-7.63-15.85-12.49,0-5.32,5.55-8.67,14.11-8.67,7.63,0,15.5,2.2,20.36,5.09v-16.42c-5.2-2.31-13.42-4.16-21.74-4.16-17.93,0-30.19,9.48-30.19,24.29s8.56,20.59,23.13,25.91c11.45,4.16,16.42,7.06,16.42,12.61,0,4.05-3.7,6.48-10.06,7.4-2.2.46-4.74.58-7.4.46-7.52-.46-15.15-3.01-20.93-6.01v17.12c6.01,2.66,15.27,4.74,24.75,4.74Z"/>
  <path class="cls-1" d="M1067.34,153.64v-83.28h-17.81v83.28h17.81Z"/>
  <path class="cls-1" d="M1179.8,148.9v-33.66h-17v22.21c-2.89.93-7.29,1.62-11.33,1.62-16.42,0-26.83-12.03-26.83-27.06s10.41-26.95,27.64-26.95c11.22,0,19.55,3.24,24.98,5.78v-16.42c-4.74-2.2-13.76-5.67-26.14-5.67-25.79,0-44.41,18.97-44.41,43.26s18.39,43.26,44.76,43.26c10.18,0,20.93-2.54,28.34-6.36Z"/>
  <path class="cls-1" d="M1290.76,153.64v-83.28h-17.81v33.66h-34.35v-33.66h-17.81v83.28h17.81v-34.81h34.35v34.81h17.81Z"/>
  <path class="cls-1" d="M1392,85.28v-14.92h-64.42v14.92h23.25v68.36h17.81v-68.36h23.36Z"/>
  <path class="cls-1" d="M1449.75,155.26c19.66,0,31-9.02,31-24.06,0-14-9.02-20.13-23.6-25.79-11.33-4.28-15.85-7.63-15.85-12.49,0-5.32,5.55-8.67,14.11-8.67,7.63,0,15.5,2.2,20.36,5.09v-16.42c-5.2-2.31-13.42-4.16-21.74-4.16-17.93,0-30.19,9.48-30.19,24.29s8.56,20.59,23.13,25.91c11.45,4.16,16.42,7.06,16.42,12.61,0,4.05-3.7,6.48-10.06,7.4-2.2.46-4.74.58-7.4.46-7.52-.46-15.15-3.01-20.93-6.01v17.12c6.01,2.66,15.27,4.74,24.75,4.74Z"/>
</svg>