<?xml version="1.0" encoding="UTF-8"?>
<svg id="Artwork" xmlns="http://www.w3.org/2000/svg" viewBox="0 0 725 590">
  <defs>
    <style>
      .cls-1 {
        fill: #f3f1ed;
        stroke-width: 0px;
      }
    </style>
  </defs>
  <path class="cls-1" d="M2.64,363.51c0,50.36,38.07,90.36,90.12,90.36,20.96,0,40.96-4.58,53.01-10.84v-46.27c-10.12,5.06-26.27,11.08-48.19,11.08-28.67,0-44.34-20.96-44.34-44.34s16.14-44.34,46.99-44.34c20.24,0,34.94,6.27,44.34,11.08v-45.78c-12.05-6.27-27.23-11.33-49.4-11.33-54.46,0-92.53,40.72-92.53,90.36Z"/>
  <path class="cls-1" d="M275.41,450.25v-42.41h-59.28v-131.08h-50.36v173.49h109.64Z"/>
  <path class="cls-1" d="M341.92,276.76h-50.36v173.49h50.36v-173.49Z"/>
  <path class="cls-1" d="M463.12,417l43.37-60.24v93.49h50.36v-173.49h-44.34l-49.4,71.81-49.4-71.81h-44.34v173.49h50.36v-93.49l43.37,60.24Z"/>
  <path class="cls-1" d="M584.33,450.25h62.89c43.37,0,73.98-15.42,73.98-52.29,0-20.48-14.7-34.94-28.67-38.8,11.33-4.34,22.41-14.7,22.41-32.53,0-35.18-32.29-49.88-71.57-49.88h-59.04v173.49ZM649.87,378.2c9.64,0,19.28,3.86,19.28,16.14s-9.64,15.9-19.28,15.9h-17.59v-32.05h17.59ZM646.26,316.76c9.64,0,18.07,3.61,18.07,14.94s-8.43,14.7-18.07,14.7h-13.98v-29.64h13.98Z"/>
  <path class="cls-1" d="M27.8,586.2v-83.28H9.99v83.28h17.81Z"/>
  <path class="cls-1" d="M145.7,586.2v-83.28h-17.81v54.01l-39.67-54.01h-15.73v83.28h17.81v-52.86l39.67,52.86h15.73Z"/>
  <path class="cls-1" d="M211.32,587.82c19.66,0,31-9.02,31-24.06,0-14-9.02-20.13-23.6-25.79-11.33-4.28-15.85-7.63-15.85-12.49,0-5.32,5.55-8.67,14.11-8.67,7.63,0,15.5,2.2,20.36,5.09v-16.42c-5.2-2.31-13.42-4.16-21.74-4.16-17.93,0-30.19,9.48-30.19,24.29s8.56,20.59,23.13,25.91c11.45,4.16,16.42,7.06,16.42,12.61,0,4.05-3.7,6.48-10.06,7.4-2.2.46-4.74.58-7.4.46-7.52-.46-15.15-3.01-20.93-6.01v17.12c6.01,2.66,15.27,4.74,24.75,4.74Z"/>
  <path class="cls-1" d="M298.91,586.2v-83.28h-17.81v83.28h17.81Z"/>
  <path class="cls-1" d="M411.37,581.46v-33.66h-17v22.21c-2.89.93-7.29,1.62-11.33,1.62-16.42,0-26.83-12.03-26.83-27.06s10.41-26.95,27.64-26.95c11.22,0,19.55,3.24,24.98,5.78v-16.42c-4.74-2.2-13.76-5.67-26.14-5.67-25.79,0-44.41,18.97-44.41,43.26s18.39,43.26,44.76,43.26c10.18,0,20.93-2.54,28.34-6.36Z"/>
  <path class="cls-1" d="M522.33,586.2v-83.28h-17.81v33.66h-34.35v-33.66h-17.81v83.28h17.81v-34.81h34.35v34.81h17.81Z"/>
  <path class="cls-1" d="M623.57,517.84v-14.92h-64.42v14.92h23.25v68.36h17.81v-68.36h23.36Z"/>
  <path class="cls-1" d="M681.32,587.82c19.66,0,31-9.02,31-24.06,0-14-9.02-20.13-23.6-25.79-11.33-4.28-15.85-7.63-15.85-12.49,0-5.32,5.55-8.67,14.11-8.67,7.63,0,15.5,2.2,20.36,5.09v-16.42c-5.2-2.31-13.42-4.16-21.74-4.16-17.93,0-30.19,9.48-30.19,24.29s8.56,20.59,23.13,25.91c11.45,4.16,16.42,7.06,16.42,12.61,0,4.05-3.7,6.48-10.06,7.4-2.2.46-4.74.58-7.4.46-7.52-.46-15.15-3.01-20.93-6.01v17.12c6.01,2.66,15.27,4.74,24.75,4.74Z"/>
  <path class="cls-1" d="M493.19,123.77L378.02,5.6c-1.76-1.8-4.68-1.73-6.34.17l-98.65,112.6c-1.14,1.3.04,3.31,1.73,2.95l83.46-17.78c1.01-.22,2.05-.23,3.07-.05l130.3,23.31c1.72.31,2.83-1.77,1.61-3.03ZM291.93,102.24L367.6,15.73c.27-.31.76,0,.6.38l-18.57,43.49c-.3.7-.78,1.32-1.4,1.77l-55.82,41.4c-.35.26-.77-.2-.49-.53ZM356.7,100.52l-77.96,17.26c-.38.08-.6-.41-.29-.64l70.74-51.95c.55-.41,1.34-.1,1.47.57l6.75,33.64c.11.51-.2,1.01-.71,1.12ZM475.21,120.29l-113.7-20.02c-.38-.07-.67-.35-.75-.73l-7.04-33.63c-.16-.75.61-1.36,1.3-1.04l120.4,54.73c.38.18.2.76-.21.68ZM483.63,119.76l-127.45-57.87c-1.41-.64-2.06-2.29-1.47-3.73l20.22-48.78c.26-.61,1.06-.76,1.53-.28l107.58,110.08c.28.29-.04.75-.41.58Z"/>
  <path class="cls-1" d="M554.21,100.2l-36.55-44.26c-1.77-2.15-5.09-2.08-6.77.14l-29.49,38.92c-.56.73-.47,1.77.2,2.4l27.17,25.59c.54.51,1.34.63,2.01.32l42.83-20.34c1.06-.5,1.36-1.87.62-2.77ZM507.06,117.33l-21.4-19.64c-.8-.74-.77-2.01.07-2.71l20.09-16.67c.21-.17.52-.03.53.24l1.33,38.53c.01.33-.4.5-.62.26ZM508.31,70.91c-.6,1.94-1.77,3.65-3.37,4.9-.02.01-.04.03-.05.04l-14.19,11.76c-.33.28-.78-.15-.52-.49l20.88-27.54c.24-.32.75-.06.63.33l-3.39,11ZM547.64,102.27l-35.12,16.18c-.61.28-1.3-.15-1.33-.81l-1.53-39.18c-.03-.75.79-1.23,1.42-.83l36.67,23c.63.4.57,1.33-.11,1.64ZM547.56,98.1l-36.36-23.21c-1.15-.93-.9-2.46-.68-3.21l3.54-12.56c.45-1.49,1.56-1.8,2.66-.59l31.73,38.63c.44.58-.27,1.31-.89.95Z"/>
  <path class="cls-1" d="M673.97,196.43l-83.85-96.48c-1.27-1.46-3.35-1.9-5.1-1.07l-1.07.5-204.93,96.6c-1.74.82-1.15,3.43.77,3.43h292.82c1.54,0,2.37-1.82,1.36-2.98ZM586.68,102.83c.37-.45,1.05-.46,1.43-.02l77.1,88.1c.27.31-.1.76-.46.55l-100.29-59.9c-.49-.29-.61-.96-.24-1.4l22.46-27.33ZM416.39,181.92l162.94-76.71c.35-.16.68.26.43.56l-19.22,23.15c-.49.58-1.12,1.03-1.83,1.29l-142.05,52.38c-.43.16-.69-.47-.28-.66ZM665.25,196.18l-272.87.06c-.65,0-.81-.9-.2-1.12l166.76-61.51c1.23-.46,2.59-.33,3.72.34l102.77,61.56c.32.19.18.67-.18.67Z"/>
  <path class="cls-1" d="M473.85,135.11l-110.91-20.64c-1.05-.19-2.12-.18-3.16.05l-77.27,16.85c-1.56.34-1.94,2.39-.6,3.27l80.94,54.07c1.26.84,2.87.96,4.24.32l107.2-50.52c1.58-.74,1.28-3.08-.44-3.4ZM361.36,118.27c.19-.35.59-.54.98-.47l101.86,17.5c.42.07.39.69-.04.71l-114.93,6.94c-.74.04-1.23-.74-.87-1.39l13-23.3ZM292.11,132.43l63.36-13.44c.79-.17,1.41.67,1.01,1.38l-12.32,22.1c-.2.35-.6.54-.99.46l-51.04-9.8c-.39-.07-.39-.62,0-.71ZM291.82,136.78c-.33-.22-.12-.73.27-.65l49.33,9.64c.97.18.97.16,1.35.86l19.28,37.75-70.23-47.6ZM467.38,138.72l-100.22,46.65c-.46.22-1.01.03-1.23-.43l-18.65-37.11c-.2-.66.23-1.23.78-1.35l119.15-8.44c.4-.03.54.52.18.69Z"/>
  <path class="cls-1" d="M354.6,196.34l-93.49-64.34-51.01-109.55c-1.32-2.83-5.11-3.37-7.17-1.02L49.51,196.64c-1.02,1.16-.19,2.99,1.35,2.99h302.71c1.77,0,2.48-2.28,1.02-3.28ZM260.09,136.63l70.2,47.81c.37.25.04.82-.36.62l-137.96-66.75c-.4-.19-.17-.79.26-.67l66.58,18.39c.46.13.89.33,1.28.59ZM206.09,26.26c.24-.83,1.38-.91,1.74-.14l49.21,104.31c.34.72-.32,1.51-1.09,1.3l-72.75-19.53c-1.17-.31-1.85-1.53-1.51-2.69l24.4-83.25ZM60.77,189.54L202.16,26.74c.26-.29.73-.03.62.34l-25.68,82.96c-.29.93-.89,1.74-1.7,2.29l-114.16,77.74c-.35.24-.75-.22-.47-.53ZM340.39,196.22l-278.32-.95c-.57,0-.79-.73-.32-1.05l116.21-78.79c.28-.19.63-.21.94-.07l161.92,79.08c.89.44.58,1.78-.41,1.78Z"/>
</svg>